<svg width="64" height="64" viewBox="0 0 64 64" xmlns="http://www.w3.org/2000/svg"><g fill="#ffb703"><circle cx="22" cy="23" r="9"/><rect x="21" y="4" width="2" height="8" rx="1"/><rect x="21" y="28" width="2" height="8" rx="1"/><rect x="4" y="19" width="8" height="2" rx="1"/><rect x="28" y="19" width="8" height="2" rx="1"/><rect x="21" y="4" width="2" height="8" rx="1" transform="rotate(45 22 20)"/><rect x="21" y="4" width="2" height="8" rx="1" transform="rotate(-45 22 20)"/><rect x="21" y="4" width="2" height="8" rx="1" transform="rotate(135 22 20)"/><rect x="21" y="4" width="2" height="8" rx="1" transform="rotate(-135 22 20)"/></g><g fill="#3fc3f6"><circle cx="30" cy="30" r="10"/><circle cx="40" cy="30" r="8"/><circle cx="18" cy="35" r="7"/><rect x="18" y="30" width="30" height="12" rx="6"/></g><g fill="#4fc3f7"><rect x="14" y="44" width="3" height="9" rx="1.5" transform="rotate(25 25.5 48.5)"/><rect x="22" y="44" width="3" height="9" rx="1.5" transform="rotate(25 33.5 48.5)"/><rect x="30" y="44" width="3" height="9" rx="1.5" transform="rotate(25 41.5 48.5)"/></g><text x="40" y="45" font-family="Segoe UI, Arial, sans-serif" font-size="60" font-weight="750" fill="#c00000" text-anchor="middle" dominant-baseline="middle">
        ?
    </text></svg>