<svg width="64" height="64" viewBox="0 0 64 64" xmlns="http://www.w3.org/2000/svg"><g fill="#9e9e9e"><path d="M8 18h32c10 0 10-10-2-10-6 0-10 4-10 8h-4c0-6 6-12 16-12 16 0 18 18 0 18H8Z"/><path d="M8 32h38c10 0 10-12-2-12-6 0-10 4-10 8h-4c0-6 6-12 16-12 16 0 18 22 0 22H8Z"/><path d="M8 48h30c10 0 10-12-2-12-6 0-10 4-10 8h-4c0-6 6-12 16-12 16 0 18 22 0 22H8Z"/></g><path d="M12 14h10m-8 12h12M12 40h10m-6 10h12" fill="none" stroke="#cfcfcf" stroke-width="1.1" stroke-linecap="round"/><g fill="#f28c28"><circle cx="42" cy="12" r="1.6"/><circle cx="46" cy="16" r="1.3"/><circle cx="44" cy="20" r="1.2"/><circle cx="48" cy="26" r="1.6"/><circle cx="42" cy="28" r="1.3"/><circle cx="46" cy="30" r="1.2"/><circle cx="40" cy="36" r="1.2"/><circle cx="48" cy="38" r="1.6"/><circle cx="44" cy="40" r="1.3"/><circle cx="40" cy="46" r="1.2"/><circle cx="46" cy="48" r="1.6"/><circle cx="42" cy="52" r="1.3"/></g></svg>